Title:
Me And You Aka Io E Te

Country:
Italy/2012

Language:
Italian

Subtitle:
English (srt)

Director:
Bernardo Bertolucci

Writers:
Niccolò Ammaniti (based on the novel by), Niccolò Ammaniti (screenplay)

Stars:
Tea Falco, Jacopo Olmo Antinori, Sonia Bergamasco

Synopsis:
An an introverted teenager tells his parents he going on a ski trip, but instead spends his time alone in a basement. 

Trivia:
Official Selection Cannes Film Festival 2012

Imdb: 
http://www.imdb.com/title/tt1801061

Trailer: 
http://www.movieplayer.it/video/trailer-io-e-te_11834/



Media Info:

General
Complete name                            : Me.and.You.[Io.E.Te].2012.DVDRip.XviD.AC3.HORiZON-ArtSubs
Format                                   : AVI
Format/Info                              : Audio Video Interleave
File size                                : 1.37 GiB
Duration                                 : 1h 32mn
Overall bit rate                         : 2 114 Kbps


Video
ID                                       : 0
Format                                   : MPEG-4 Visual
Format profile                           : Advanced Simple@L5
Format settings, BVOP                    : 2
Format settings, QPel                    : No
Format settings, GMC                     : No warppoints
Format settings, Matrix                  : Default (MPEG)
Codec ID                                 : XVID
Codec ID/Hint                            : XviD
Duration                                 : 1h 32mn
Bit rate                                 : 1 656 Kbps
Width                                    : 640 pixels
Height                                   : 272 pixels
Display aspect ratio                     : 2.35:1
Frame rate                               : 25.000 fps
Color space                              : YUV
Chroma subsampling                       : 4:2:0
Bit depth                                : 8 bits
Scan type                                : Progressive
Compression mode                         : Lossy
Bits/(Pixel*Frame)                       : 0.381
Stream size                              : 1.07 GiB (78%)
Writing library                          : XviD 1.1.0 (UTC 2005-11-22)

Audio
ID                                       : 1
Format                                   : AC-3
Format/Info                              : Audio Coding 3
Mode extension                           : CM (complete main)
Format settings, Endianness              : Big
Codec ID                                 : 2000
Duration                                 : 1h 32mn
Bit rate mode                            : Constant
Bit rate                                 : 448 Kbps
Channel(s)                               : 6 channels
Channel positions                        : Front: L C R, Side: L R, LFE
Sampling rate                            : 48.0 KHz
Bit depth                                : 16 bits
Compression mode                         : Lossy
Stream size                              : 297 MiB (21%)
Alignment                                : Split accross interleaves
Interleave, duration                     : 40 ms (1.00 video frame)
Interleave, preload duration             : 500 ms

